<?xml version="1.0" standalone="no"?>
<!DOCTYPE svg PUBLIC "-//W3C//DTD SVG 20010904//EN"
 "http://www.w3.org/TR/2001/REC-SVG-20010904/DTD/svg10.dtd">
<svg version="1.0" xmlns="http://www.w3.org/2000/svg"
 width="1600.000000pt" height="1600.000000pt" viewBox="0 0 1600.000000 1600.000000"
 preserveAspectRatio="xMidYMid meet">
<metadata>
Created by potrace 1.14, written by Peter Selinger 2001-2017
</metadata>
<g transform="translate(0.000000,1600.000000) scale(0.100000,-0.100000)"
fill="#000000" stroke="none">
<path d="M7430 15989 c-428 -24 -1093 -134 -1509 -250 -537 -150 -979 -320
-1461 -563 -129 -65 -242 -124 -250 -131 -8 -7 -35 -23 -60 -35 -148 -74 -595
-364 -795 -516 -224 -171 -277 -213 -356 -282 -182 -160 -263 -227 -271 -225
-4 2 -7 0 -5 -5 1 -4 -32 -39 -73 -77 -196 -180 -637 -644 -755 -794 -16 -21
-55 -69 -86 -107 -154 -192 -279 -362 -424 -581 -44 -66 -102 -156 -128 -200
-27 -43 -73 -117 -103 -165 -30 -48 -54 -90 -54 -94 0 -3 -15 -32 -34 -63 -96
-160 -281 -528 -366 -731 -15 -36 -39 -92 -53 -125 -117 -270 -229 -599 -347
-1015 -43 -151 -51 -187 -131 -565 -40 -190 -114 -730 -130 -945 -18 -231 -18
-1079 -1 -1295 17 -212 92 -762 125 -917 8 -35 26 -121 42 -193 15 -71 45
-197 67 -280 22 -82 48 -184 58 -225 39 -157 154 -473 261 -719 37 -85 225
-456 282 -556 258 -456 575 -909 872 -1245 68 -77 86 -97 189 -215 143 -163
491 -518 652 -666 139 -127 233 -208 425 -369 55 -46 349 -267 432 -325 31
-22 76 -54 100 -71 23 -17 94 -63 157 -103 63 -41 140 -91 172 -112 31 -22 59
-39 62 -39 3 0 43 -22 88 -48 173 -102 228 -132 388 -215 229 -118 588 -285
760 -353 602 -236 1156 -396 1650 -474 497 -79 761 -100 1265 -100 490 0 820
23 1220 86 88 13 178 27 200 30 93 14 504 108 675 155 222 61 446 130 555 171
44 17 123 45 175 64 52 18 156 58 230 89 74 32 167 71 205 87 39 16 104 46
145 67 41 21 91 44 110 51 45 18 374 189 465 243 282 164 618 380 765 492 30
23 65 48 77 56 18 12 155 119 366 287 88 70 389 343 531 482 232 227 558 592
731 819 44 57 94 120 111 140 17 20 43 54 57 76 15 22 54 78 87 125 95 134
223 327 313 475 218 357 437 791 600 1185 108 263 132 332 179 503 52 195 74
298 87 419 22 199 9 304 -33 269 -14 -12 -126 -229 -126 -245 0 -8 -125 -332
-150 -388 -11 -26 -33 -82 -49 -125 -80 -217 -338 -760 -440 -926 -22 -37 -41
-71 -41 -75 0 -4 -27 -52 -60 -105 -33 -54 -60 -100 -60 -103 0 -9 -268 -421
-338 -519 -157 -220 -347 -468 -382 -500 -13 -11 34 57 103 150 176 237 185
251 300 427 140 217 174 272 182 299 4 13 -8 0 -27 -29 -44 -69 -129 -194
-141 -207 -15 -16 13 36 43 80 15 22 39 63 54 90 14 28 31 57 36 65 49 75 340
644 340 666 0 2 24 59 54 127 57 127 126 296 156 382 140 392 262 785 290 935
4 25 24 115 44 200 41 181 108 584 130 785 22 197 44 545 50 775 6 223 -6 190
-24 -70 -11 -153 -48 -483 -69 -610 -5 -30 -13 -82 -16 -115 -10 -89 -110
-577 -145 -707 -17 -62 -38 -144 -46 -183 -8 -38 -26 -101 -40 -140 -14 -38
-38 -115 -54 -170 -28 -100 -131 -394 -188 -535 -112 -280 -284 -655 -357
-779 -19 -32 -35 -63 -35 -67 0 -10 -98 -185 -159 -284 -25 -41 -49 -83 -54
-94 -8 -19 -320 -489 -356 -536 -11 -14 -59 -79 -108 -144 -48 -66 -101 -136
-118 -157 -16 -21 -43 -55 -60 -76 -16 -21 -111 -130 -211 -243 -324 -366
-518 -553 -963 -928 -29 -25 -56 -40 -63 -36 -6 4 -8 3 -5 -3 6 -10 -120 -110
-317 -250 -55 -40 -119 -85 -141 -101 -22 -17 -92 -62 -155 -102 -63 -40 -137
-88 -165 -106 -27 -18 -70 -43 -95 -57 -25 -13 -103 -58 -175 -98 -290 -166
-704 -359 -1030 -481 -132 -50 -541 -184 -680 -223 -161 -46 -582 -141 -690
-155 -44 -6 -98 -15 -120 -20 -92 -20 -507 -70 -672 -81 -213 -14 -807 -17
-1023 -6 -334 17 -975 109 -1195 171 -27 8 -77 19 -110 25 -123 22 -764 215
-753 227 2 1 42 -8 88 -21 132 -35 302 -81 450 -119 143 -37 712 -154 789
-162 25 -3 123 -16 216 -29 347 -50 573 -65 985 -65 376 0 620 17 895 65 77
13 162 26 188 30 62 8 359 89 383 104 18 11 18 12 -1 7 -93 -22 -460 -76 -720
-105 -408 -47 -1131 -49 -1540 -5 -193 21 -611 81 -720 104 -49 10 -157 33
-240 50 -394 82 -1077 304 -1372 446 -39 19 -75 34 -78 34 -4 0 -71 30 -149
67 -331 156 -696 362 -1001 566 -162 108 -180 121 -342 242 -60 45 -115 84
-123 89 -18 10 85 -91 160 -157 l55 -48 -62 43 c-173 120 -388 285 -463 353
-14 13 -47 43 -75 66 -147 128 -345 320 -540 523 -117 123 -458 541 -536 658
-13 19 -58 84 -99 143 -41 59 -83 121 -93 138 -22 40 -12 28 107 -134 149
-204 174 -236 309 -402 42 -52 109 -130 147 -172 38 -42 67 -82 63 -88 -3 -5
-1 -7 4 -4 6 4 26 -10 43 -31 66 -76 319 -330 435 -438 166 -152 400 -356 444
-386 14 -10 37 -25 51 -34 34 -23 -59 67 -200 195 -195 176 -591 574 -705 709
-16 19 -70 80 -119 136 -133 151 -133 153 4 12 283 -293 606 -598 809 -765 36
-30 91 -77 121 -104 47 -43 145 -121 288 -230 20 -15 51 -39 68 -52 94 -74
474 -333 554 -376 19 -11 58 -34 85 -51 179 -111 602 -330 560 -290 -5 6 -46
29 -90 52 -44 24 -108 58 -143 76 -34 18 -82 47 -107 64 -24 16 -48 30 -54 30
-6 0 -11 4 -11 10 0 5 -3 9 -7 8 -16 -5 -399 243 -564 366 -374 275 -808 673
-1079 986 -30 35 -73 84 -95 109 -21 25 34 -26 124 -114 90 -88 171 -167 180
-176 52 -51 379 -333 426 -369 18 -14 82 -63 141 -110 60 -47 118 -92 131
-100 12 -8 68 -49 125 -90 57 -41 136 -96 176 -123 118 -77 263 -167 268 -167
3 0 24 -13 47 -29 23 -15 71 -44 107 -63 36 -20 126 -69 200 -109 283 -155
612 -304 920 -418 214 -79 610 -203 753 -235 54 -13 18 11 -45 28 -206 59
-599 195 -753 261 -44 19 -102 43 -130 54 -27 10 -84 35 -125 54 -41 19 -102
47 -134 61 -32 15 -57 29 -54 32 3 3 51 -15 107 -40 269 -121 762 -296 1016
-360 287 -73 410 -100 605 -135 281 -51 327 -57 578 -81 506 -48 986 -51 1431
-10 123 11 226 19 228 16 7 -7 -410 -51 -637 -66 -459 -31 -1151 10 -1595 95
-104 20 -206 38 -225 41 -19 2 -50 9 -69 14 -57 16 -47 3 11 -14 118 -35 450
-101 708 -141 52 -8 223 -27 380 -41 247 -23 336 -27 665 -28 234 0 432 5 515
12 74 7 212 20 305 28 564 52 1281 226 1846 450 74 30 139 54 142 54 29 0 615
283 749 362 32 18 92 53 135 77 135 76 363 222 522 335 62 45 132 94 155 110
72 51 368 291 481 391 180 159 506 488 656 661 168 196 259 309 259 325 0 12
-26 -10 -225 -197 -66 -62 -134 -123 -150 -135 -17 -12 -50 -41 -74 -63 -67
-61 -29 -16 85 104 124 128 256 278 402 457 108 131 323 433 433 608 521 830
849 1738 984 2725 45 331 63 994 37 1325 -7 83 -15 182 -17 220 -9 110 -34
298 -60 440 -13 72 -29 162 -35 200 -49 314 -282 1058 -429 1370 -15 33 -36
80 -47 105 -66 161 -284 565 -417 775 -39 61 -93 150 -121 198 -28 48 -93 158
-145 245 -51 86 -101 171 -111 187 -38 66 -250 382 -366 548 -15 20 -25 39
-23 42 4 3 57 -57 134 -154 17 -21 64 -80 105 -132 183 -228 452 -626 573
-849 16 -30 33 -59 37 -65 23 -31 260 -496 260 -510 0 -2 17 -39 38 -82 21
-43 46 -100 56 -128 10 -27 33 -84 51 -125 56 -129 235 -620 235 -644 0 -5 22
-80 49 -165 27 -86 70 -235 96 -331 26 -96 58 -215 72 -265 75 -276 139 -435
176 -435 88 0 41 540 -94 1090 -53 212 -139 500 -190 630 -16 41 -29 78 -29
82 0 14 -112 292 -172 428 -110 249 -284 588 -402 785 -96 161 -114 191 -160
263 -27 42 -56 88 -66 102 -9 14 -36 53 -59 87 -24 36 -39 68 -35 74 4 7 3 9
-3 6 -6 -4 -19 6 -28 21 l-18 27 21 -19 c30 -26 28 -8 -2 23 -13 15 -47 60
-75 101 -50 72 -50 73 -11 30 53 -59 221 -270 307 -387 64 -87 134 -184 300
-418 64 -89 123 -158 123 -143 0 10 -81 241 -91 260 -49 91 151 -204 238 -352
96 -162 114 -196 215 -400 99 -202 132 -276 229 -517 89 -223 262 -766 292
-918 8 -38 30 -133 50 -210 19 -77 38 -160 42 -185 3 -25 22 -121 40 -215 19
-93 53 -298 75 -455 44 -305 55 -368 62 -376 14 -14 -20 299 -58 531 -19 116
-42 253 -50 305 -37 230 -166 759 -251 1030 -92 296 -230 670 -304 826 -16 34
-29 65 -29 69 0 24 -259 554 -340 695 -20 36 -61 108 -90 160 -30 52 -80 136
-112 187 -32 51 -58 94 -58 97 0 14 -325 481 -436 626 -105 137 -270 335 -405
485 -227 253 -599 617 -769 754 -25 19 -72 59 -105 87 -83 70 -357 282 -430
332 -33 23 -96 67 -140 98 -44 31 -111 77 -150 101 -38 24 -113 71 -165 104
-272 175 -747 423 -1060 554 -285 119 -432 173 -715 263 -201 64 -395 119
-505 144 -310 71 -400 89 -525 108 -77 11 -214 32 -305 45 -306 46 -451 55
-925 59 -247 3 -524 0 -615 -5z m1310 -1053 c215 -18 409 -44 635 -86 28 -5
79 -14 115 -20 70 -13 459 -105 500 -120 14 -4 75 -23 135 -40 61 -18 137 -41
170 -52 201 -69 261 -90 355 -128 58 -22 156 -63 218 -91 61 -27 114 -49 117
-49 2 0 64 -29 136 -65 136 -68 152 -72 192 -54 21 10 32 6 85 -33 34 -23 94
-64 134 -89 182 -115 208 -132 208 -134 0 -2 -66 30 -147 70 -211 105 -553
256 -633 279 -14 4 -79 27 -145 51 -238 85 -630 195 -850 239 -357 70 -517 92
-837 116 -457 35 -1065 20 -1453 -34 -762 -108 -1491 -337 -2160 -681 -196
-101 -229 -119 -409 -227 -528 -316 -1106 -790 -1501 -1232 -38 -44 -75 -84
-80 -90 -6 -6 -49 -57 -95 -113 -47 -56 -101 -121 -120 -144 -19 -23 -51 -63
-70 -89 -19 -27 -62 -83 -95 -127 -130 -172 -370 -552 -492 -778 -54 -102
-183 -361 -183 -369 0 -2 -18 -42 -39 -88 -137 -289 -290 -733 -386 -1123 -29
-121 -57 -238 -60 -260 -4 -22 -18 -98 -31 -170 -62 -337 -90 -628 -101 -1055
-5 -217 1 -405 23 -735 8 -122 42 -382 69 -529 13 -72 26 -151 30 -176 11 -79
103 -450 152 -610 84 -283 190 -569 300 -815 63 -142 226 -467 280 -558 29
-49 53 -91 53 -94 0 -19 292 -463 400 -607 123 -166 129 -178 44 -90 -184 190
-363 403 -530 634 -52 71 -99 141 -371 552 -48 72 -135 211 -161 258 -14 25
-33 56 -42 70 -9 14 -47 82 -84 153 -50 94 -63 127 -52 127 32 0 21 41 -62
245 -89 219 -203 568 -247 760 -13 55 -33 138 -45 185 -38 145 -96 508 -144
900 -20 159 -39 290 -66 455 -35 213 -35 243 -1 415 16 85 46 256 65 379 20
123 47 274 61 335 13 61 29 140 35 176 49 281 232 903 360 1220 108 269 270
603 400 828 170 294 508 755 792 1082 98 113 368 385 524 528 61 56 149 145
195 198 47 54 104 107 129 122 25 14 65 39 90 56 25 17 85 55 134 84 49 29
116 74 150 100 117 92 433 304 618 415 199 119 235 141 258 151 14 6 54 27 90
47 50 28 92 41 180 58 113 20 264 65 450 134 115 42 399 124 495 143 39 8 149
31 245 53 96 21 207 44 245 50 491 77 566 86 830 97 83 4 152 9 155 12 10 9
659 -8 840 -22z m-5400 -790 c0 -2 -7 -7 -16 -10 -8 -3 -12 -2 -9 4 6 10 25
14 25 6z m-81 -59 c-26 -23 -101 -89 -167 -147 -214 -187 -593 -577 -767 -790
-33 -40 -74 -89 -91 -109 -74 -86 -338 -451 -434 -600 -169 -262 -200 -311
-200 -318 0 -3 -17 -33 -37 -67 -50 -81 -106 -188 -199 -376 -42 -85 -85 -171
-94 -190 -22 -43 -145 -332 -195 -460 -139 -354 -307 -937 -365 -1270 -67
-380 -81 -479 -99 -680 -11 -124 -23 -244 -26 -268 -3 -27 -1 -41 5 -37 15 9
12 -5 -5 -21 -8 -9 -15 -25 -16 -37 0 -12 -5 -31 -10 -42 -22 -47 3 402 41
760 10 93 87 500 116 615 115 452 270 905 420 1229 24 52 44 98 44 103 0 10
224 461 282 568 57 105 152 272 181 317 15 24 27 45 27 48 0 3 17 34 39 68
141 228 181 292 234 372 88 133 202 285 287 383 42 48 86 101 98 117 52 68
314 334 469 477 92 84 188 173 213 198 67 65 113 99 204 152 45 25 83 46 86
47 3 0 -16 -18 -41 -42z m8622 -184 c13 -17 13 -17 -6 -3 -11 8 -22 16 -24 17
-2 2 0 3 6 3 6 0 17 -8 24 -17z m-3360 -1008 c448 -36 944 -161 1344 -337 219
-96 572 -290 685 -376 14 -10 54 -39 90 -63 204 -139 481 -378 700 -605 671
-696 1102 -1506 1279 -2404 93 -473 93 -460 89 -2970 -4 -2382 2 -2196 -77
-2330 -70 -117 -161 -186 -298 -223 -112 -31 -372 -30 -486 1 -148 41 -244
117 -307 246 -54 109 -59 175 -49 611 4 193 8 412 8 489 l1 138 -123 -119
c-540 -521 -1165 -890 -1872 -1103 -464 -140 -1017 -211 -1535 -197 -372 11
-631 41 -951 112 -304 68 -548 148 -839 277 -174 77 -436 216 -533 283 -12 8
-74 49 -137 92 -253 169 -463 344 -710 592 -330 332 -577 655 -785 1026 -230
412 -366 786 -490 1350 -11 51 -56 434 -65 555 -5 74 -10 227 -10 340 0 753
155 1442 464 2061 279 556 651 1028 1171 1484 208 183 471 368 729 515 254
144 604 296 846 367 47 13 123 36 170 49 87 26 411 93 555 114 253 39 818 51
1136 25z m-7917 -5363 c24 -250 39 -358 106 -742 23 -135 70 -340 77 -340 6 0
-2 63 -29 238 -11 73 -18 135 -16 137 2 3 24 -80 47 -183 50 -213 97 -379 181
-638 80 -246 182 -509 301 -774 46 -103 245 -495 278 -550 16 -25 45 -74 65
-110 134 -236 343 -549 537 -805 82 -108 251 -308 410 -484 149 -166 257 -274
554 -556 22 -20 11 -13 -24 16 -355 297 -801 773 -1100 1174 -41 55 -86 116
-101 135 -29 37 -205 301 -257 385 -76 120 -273 468 -273 480 0 4 -15 33 -34
64 -18 32 -64 122 -101 202 -36 79 -78 169 -92 199 -46 98 -165 409 -223 580
-79 236 -200 668 -220 790 -5 30 -20 110 -34 178 -61 296 -86 556 -91 972 -3
272 -3 277 5 97 5 -103 20 -313 34 -465z m786 -3232 c6 -11 8 -20 6 -20 -3 0
-10 9 -16 20 -6 11 -8 20 -6 20 3 0 10 -9 16 -20z m90 -140 c6 -11 8 -20 6
-20 -3 0 -10 9 -16 20 -6 11 -8 20 -6 20 3 0 10 -9 16 -20z m40 -60 c12 -16
19 -30 16 -30 -2 0 -14 14 -26 30 -12 17 -19 30 -16 30 2 0 14 -13 26 -30z
m12720 -780 c-32 -40 -67 -70 -41 -34 21 27 64 74 69 74 2 0 -11 -18 -28 -40z
m-50 -63 c0 -2 -15 -16 -32 -33 l-33 -29 29 33 c28 30 36 37 36 29z m-10950
-634 c0 -8 -38 17 -51 33 -9 11 -2 9 19 -6 17 -13 32 -25 32 -27z m10125 -301
c-269 -252 -628 -545 -860 -702 -27 -18 -90 -61 -140 -94 -49 -33 -115 -76
-145 -95 -147 -90 -261 -158 -320 -189 -36 -19 -76 -43 -90 -52 -34 -23 -513
-258 -559 -275 -20 -7 -101 -42 -181 -77 -80 -36 -158 -68 -175 -72 -16 -4
-75 -25 -130 -46 -139 -53 -379 -130 -575 -184 -163 -45 -568 -139 -645 -150
-22 -3 -123 -19 -225 -35 -437 -71 -642 -86 -1180 -86 -446 0 -672 8 -855 30
l-110 14 130 -4 c751 -26 1207 -8 1685 64 74 12 169 25 211 31 139 17 599 118
829 181 239 66 563 173 779 257 52 21 106 41 120 46 157 54 719 323 935 448
277 159 344 200 486 293 52 35 142 87 200 117 58 30 139 77 180 104 139 91
418 307 617 477 72 61 83 60 18 -1z m-8690 -642 c3 -6 -1 -7 -9 -4 -18 7 -21
14 -7 14 6 0 13 -4 16 -10z m65 -30 c19 -11 31 -19 25 -19 -5 0 -26 8 -45 19
-19 11 -30 19 -25 19 6 0 26 -8 45 -19z m85 -48 c-3 -3 -11 0 -18 7 -9 10 -8
11 6 5 10 -3 15 -9 12 -12z m-166 -661 c153 -68 606 -241 629 -241 5 0 72 -21
148 -46 76 -25 164 -51 194 -58 30 -8 123 -32 205 -54 83 -22 221 -54 307 -73
87 -18 156 -34 155 -36 -10 -9 -453 65 -632 107 -396 91 -693 203 -1017 381
-174 96 -172 100 11 20z m1688 -517 c-3 -3 -12 -4 -19 -1 -8 3 -5 6 6 6 11 1
17 -2 13 -5z m720 -100 c-3 -3 -12 -4 -19 -1 -8 3 -5 6 6 6 11 1 17 -2 13 -5z
m86 -11 c-7 -2 -21 -2 -30 0 -10 3 -4 5 12 5 17 0 24 -2 18 -5z"/>
<path d="M7880 11703 c-304 -21 -394 -34 -635 -93 -244 -59 -522 -164 -725
-273 -585 -314 -1101 -814 -1435 -1392 -158 -274 -259 -531 -350 -893 -25 -98
-63 -390 -76 -572 -30 -452 50 -1014 206 -1430 53 -144 147 -349 213 -465 308
-544 791 -1023 1337 -1322 381 -210 799 -338 1252 -383 331 -34 719 -24 1060
26 124 18 461 102 558 139 39 14 90 33 115 42 179 60 451 203 680 357 258 173
594 482 746 687 10 15 45 61 77 103 325 431 541 1008 587 1566 13 162 13 528
0 703 -31 412 -173 899 -375 1284 -334 636 -880 1210 -1456 1529 -307 170
-679 298 -1031 353 -199 32 -553 48 -748 34z"/>
</g>
</svg>
